<svg width="46" height="46" viewBox="0 0 46 46" fill="none" xmlns="http://www.w3.org/2000/svg">
<ellipse cx="23.1855" cy="23.2151" rx="22.3468" ry="22.7849" fill="#FFFEFE"/>
<path d="M23.1882 17.5868C19.831 17.5868 17.1231 20.2953 17.1231 23.6532C17.1231 27.0112 19.831 29.7197 23.1882 29.7197C26.5453 29.7197 29.2533 27.0112 29.2533 23.6532C29.2533 20.2953 26.5453 17.5868 23.1882 17.5868ZM23.1882 27.5972C21.0187 27.5972 19.245 25.8285 19.245 23.6532C19.245 21.478 21.0134 19.7092 23.1882 19.7092C25.3629 19.7092 27.1313 21.478 27.1313 23.6532C27.1313 25.8285 25.3577 27.5972 23.1882 27.5972ZM30.916 17.3386C30.916 18.1253 30.2826 18.7536 29.5014 18.7536C28.7148 18.7536 28.0867 18.12 28.0867 17.3386C28.0867 16.5572 28.7201 15.9236 29.5014 15.9236C30.2826 15.9236 30.916 16.5572 30.916 17.3386ZM34.933 18.7747C34.8433 16.8793 34.4104 15.2003 33.0222 13.817C31.6392 12.4337 29.9606 12.0008 28.0656 11.9057C26.1125 11.7949 20.2585 11.7949 18.3055 11.9057C16.4157 11.9955 14.7371 12.4284 13.3489 13.8117C11.9606 15.195 11.533 16.874 11.438 18.7694C11.3272 20.723 11.3272 26.5782 11.438 28.5317C11.5277 30.4272 11.9606 32.1061 13.3489 33.4894C14.7371 34.8727 16.4104 35.3057 18.3055 35.4007C20.2585 35.5116 26.1125 35.5116 28.0656 35.4007C29.9606 35.311 31.6392 34.878 33.0222 33.4894C34.4052 32.1061 34.838 30.4272 34.933 28.5317C35.0439 26.5782 35.0439 20.7282 34.933 18.7747ZM32.4099 30.6278C31.9981 31.6626 31.2011 32.4599 30.1612 32.877C28.604 33.4947 24.909 33.3522 23.1882 33.3522C21.4673 33.3522 17.767 33.4894 16.2151 32.877C15.1805 32.4652 14.3835 31.6679 13.9665 30.6278C13.3489 29.0703 13.4914 25.3744 13.4914 23.6532C13.4914 21.932 13.3541 18.2309 13.9665 16.6787C14.3782 15.6438 15.1753 14.8466 16.2151 14.4295C17.7723 13.8117 21.4673 13.9543 23.1882 13.9543C24.909 13.9543 28.6093 13.817 30.1612 14.4295C31.1958 14.8413 31.9929 15.6385 32.4099 16.6787C33.0275 18.2362 32.8849 21.932 32.8849 23.6532C32.8849 25.3744 33.0275 29.0756 32.4099 30.6278Z" fill="#3F4652"/>
</svg>
