<svg width="45" height="46" viewBox="0 0 45 46" fill="none" xmlns="http://www.w3.org/2000/svg">
<ellipse cx="22.3468" cy="22.7849" rx="22.3468" ry="22.7849" fill="#FFFEFE"/>
<path d="M16.3721 34H11.3964V17.9764H16.3721V34ZM13.8816 15.7907C12.2905 15.7907 11 14.4728 11 12.8817C11 12.1174 11.3036 11.3844 11.844 10.844C12.3844 10.3036 13.1174 10 13.8816 10C14.6459 10 15.3788 10.3036 15.9192 10.844C16.4596 11.3844 16.7632 12.1174 16.7632 12.8817C16.7632 14.4728 15.4721 15.7907 13.8816 15.7907ZM34.9946 34H30.0296V26.1998C30.0296 24.3409 29.9921 21.9569 27.4427 21.9569C24.8557 21.9569 24.4593 23.9766 24.4593 26.0659V34H19.4889V17.9764H24.2611V20.1622H24.3307C24.995 18.9032 26.6177 17.5746 29.0386 17.5746C34.0743 17.5746 35 20.8908 35 25.198V34H34.9946Z" fill="#3F4652"/>
</svg>
